<svg preserveAspectRatio="none" width="100%" height="100%" overflow="visible" style="display: block;" viewBox="0 0 12.9167 17.9167" fill="none" xmlns="http://www.w3.org/2000/svg">
<path id="Vector" fill-rule="evenodd" clip-rule="evenodd" d="M1.60985 7.56942C0.79505 7.56942 0.625 7.72933 0.625 8.49533V9.88425C0.625 10.6503 0.79505 10.8102 1.60985 10.8102H3.57954V16.3658C3.57954 17.1318 3.74959 17.2917 4.56439 17.2917H6.53408C7.34892 17.2917 7.51892 17.1318 7.51892 16.3658V10.8102H9.73058C10.3486 10.8102 10.5078 10.6972 10.6776 10.1387L11.0997 8.74975C11.3904 7.79283 11.2113 7.56942 10.1527 7.56942H7.51892V5.25463C7.51892 4.74326 7.95983 4.3287 8.50375 4.3287H11.3068C12.1216 4.3287 12.2917 4.16883 12.2917 3.40278V1.55092C12.2917 0.784875 12.1216 0.625 11.3068 0.625H8.50375C5.78417 0.625 3.57954 2.69776 3.57954 5.25463V7.56942H1.60985Z" stroke="var(--stroke-0, #020617)" stroke-width="1.25" stroke-linejoin="round"/>
</svg>
