<svg preserveAspectRatio="none" width="100%" height="100%" overflow="visible" style="display: block;" viewBox="0 0 16.25 14.5833" fill="none" xmlns="http://www.w3.org/2000/svg">
<path id="Vector" d="M8.95833 4.375H9.375V1.20529C9.375 0.8848 9.63483 0.625 9.95525 0.625C10.1167 0.625 10.2707 0.692183 10.3805 0.810433L15.3415 6.153C15.5237 6.34925 15.625 6.60717 15.625 6.875C15.625 7.14283 15.5237 7.40075 15.3415 7.597L10.3805 12.9396C10.2707 13.0578 10.1167 13.125 9.95525 13.125C9.63483 13.125 9.375 12.8652 9.375 12.5447V9.375C4.74629 9.375 2.2474 12.7218 1.61832 13.6956C1.51448 13.8563 1.33928 13.9583 1.14792 13.9583C0.859117 13.9583 0.625 13.7242 0.625 13.4354V12.7083C0.625 8.106 4.35596 4.375 8.95833 4.375Z" stroke="var(--stroke-0, #020617)" stroke-width="1.25" stroke-linejoin="round"/>
</svg>
