<svg preserveAspectRatio="none" width="100%" height="100%" overflow="visible" style="display: block;" viewBox="0 0 188.467 98" fill="none" xmlns="http://www.w3.org/2000/svg">
<g id="Frame 102">
<line id="Line" y1="-0.5" x2="97" y2="-0.5" transform="matrix(4.37114e-08 -1 -1 -4.37114e-08 0.467477 98)" stroke="url(#paint0_linear_0_79)" stroke-dasharray="7 8"/>
<line id="Line_2" y1="-0.5" x2="97" y2="-0.5" transform="matrix(4.69585e-08 -1 -1 -4.06888e-08 62.4675 97)" stroke="url(#paint1_linear_0_79)" stroke-dasharray="7 8"/>
<line id="Line_3" x1="123.967" y1="98" x2="123.967" y2="1" stroke="url(#paint2_linear_0_79)" stroke-dasharray="7 8"/>
<line id="Line_4" y1="-0.5" x2="97" y2="-0.5" transform="matrix(4.69585e-08 -1 -1 -4.06888e-08 186.467 97)" stroke="url(#paint3_linear_0_79)" stroke-dasharray="7 8"/>
<path id="Vector 1" d="M49.6576 50.7411C20.5534 50.7411 4.73745 73.247 0.467477 84.5V97H186.467V14.5C165.459 14.5 173.145 59.6773 139.327 59.6773C105.509 59.6773 122.418 14.5 96.2857 14.5C70.1534 14.5 86.0377 50.7411 49.6576 50.7411Z" fill="url(#paint4_linear_0_79)" fill-opacity="0.07"/>
<path id="Vector 2" d="M0.467477 84.5C4.73745 73.247 20.5534 50.7411 49.6576 50.7411C86.0377 50.7411 70.1534 14.5 96.2857 14.5C122.418 14.5 105.509 59.6773 139.327 59.6773C173.145 59.6773 165.459 14.5 186.467 14.5" stroke="var(--stroke-0, #9BFA22)"/>
</g>
<defs>
<linearGradient id="paint0_linear_0_79" x1="96.5" y1="0.5" x2="-0.499997" y2="0.499995" gradientUnits="userSpaceOnUse">
<stop stop-color="#969993" stop-opacity="0"/>
<stop offset="1" stop-color="#323331"/>
</linearGradient>
<linearGradient id="paint1_linear_0_79" x1="96.5" y1="0.5" x2="-0.499997" y2="0.499995" gradientUnits="userSpaceOnUse">
<stop stop-color="#969993" stop-opacity="0"/>
<stop offset="1" stop-color="#323331"/>
</linearGradient>
<linearGradient id="paint2_linear_0_79" x1="124.967" y1="1.5" x2="124.967" y2="98.5" gradientUnits="userSpaceOnUse">
<stop stop-color="#969993" stop-opacity="0"/>
<stop offset="1" stop-color="#323331"/>
</linearGradient>
<linearGradient id="paint3_linear_0_79" x1="96.5" y1="0.5" x2="-0.499997" y2="0.499995" gradientUnits="userSpaceOnUse">
<stop stop-color="#969993" stop-opacity="0"/>
<stop offset="1" stop-color="#323331"/>
</linearGradient>
<linearGradient id="paint4_linear_0_79" x1="93.4675" y1="46.5" x2="93.4675" y2="97" gradientUnits="userSpaceOnUse">
<stop stop-color="#EAFDD2"/>
<stop offset="1" stop-color="white" stop-opacity="0"/>
</linearGradient>
</defs>
</svg>
