<svg preserveAspectRatio="none" width="100%" height="100%" overflow="visible" style="display: block;" viewBox="0 0 27.9803 28.0002" fill="none" xmlns="http://www.w3.org/2000/svg">
<g id="Group 1">
<path id="Vector" d="M19.0827 28H8.90081C8.89784 25.6406 7.95913 23.3787 6.29055 21.7103C4.62197 20.042 2.35973 19.1033 0 19.1003V8.91969C10.5222 8.91969 19.0827 17.4792 19.0827 28Z" fill="var(--fill-0, #84CC16)"/>
<path id="Vector_2" d="M27.9802 8.91985V19.1005C25.6203 19.1034 23.3581 20.0421 21.6895 21.7105C20.021 23.3788 19.0823 25.6408 19.0794 28.0002H8.89735C8.89735 17.4793 17.458 8.91985 27.9802 8.91985Z" fill="var(--fill-0, #84CC16)"/>
<path id="Vector_3" d="M13.9876 10.0798C16.7714 10.0798 19.0282 7.82341 19.0282 5.03992C19.0282 2.25644 16.7714 0 13.9876 0C11.2038 0 8.94707 2.25644 8.94707 5.03992C8.94707 7.82341 11.2038 10.0798 13.9876 10.0798Z" fill="var(--fill-0, #84CC16)"/>
</g>
</svg>
