<svg preserveAspectRatio="none" width="100%" height="100%" overflow="visible" style="display: block;" viewBox="0 0 16.2504 16.2504" fill="none" xmlns="http://www.w3.org/2000/svg">
<g id="Vector">
<path d="M2.21861 6.90942L4.41896 4.70907C4.86781 4.26022 5.02312 3.59702 4.84159 2.98877C4.69964 2.51314 4.53971 1.94137 4.4334 1.45243C4.33507 1.00022 3.93826 0.625 3.47549 0.625H2.21861C1.29306 0.625 0.532981 1.3782 0.634506 2.29817C1.4063 9.29133 6.95906 14.8441 13.9522 15.6159C14.8722 15.7174 15.6254 14.9573 15.6254 14.0318V12.7749C15.6254 12.3122 15.2486 11.9325 14.7933 11.8497C14.2911 11.7583 13.7596 11.6087 13.3151 11.4669C12.6763 11.2632 11.9663 11.4064 11.4923 11.8804L9.34097 14.0318" fill="#070A0F"/>
<path d="M2.21861 6.90942L4.41896 4.70907C4.86781 4.26022 5.02312 3.59702 4.84159 2.98877C4.69964 2.51314 4.53971 1.94137 4.4334 1.45243C4.33507 1.00022 3.93826 0.625 3.47549 0.625H2.21861C1.29306 0.625 0.532981 1.3782 0.634506 2.29817C1.4063 9.29133 6.95906 14.8441 13.9522 15.6159C14.8722 15.7174 15.6254 14.9573 15.6254 14.0318V12.7749C15.6254 12.3122 15.2486 11.9325 14.7933 11.8497C14.2911 11.7583 13.7596 11.6087 13.3151 11.4669C12.6763 11.2632 11.9663 11.4064 11.4923 11.8804L9.34097 14.0318" stroke="var(--stroke-0, #070A0F)" stroke-width="1.25" stroke-linecap="round" stroke-linejoin="round"/>
</g>
</svg>
