<svg preserveAspectRatio="none" width="100%" height="100%" overflow="visible" style="display: block;" viewBox="0 0 80 80" fill="none" xmlns="http://www.w3.org/2000/svg">
<g id="Quotes-Fill--Streamline-Phosphor-Fill">
<path id="Vector" d="M35.4769 17.3846V50.5538C35.4665 60.5416 27.3724 68.6357 17.3846 68.6461C15.0634 68.646 13.6126 66.1331 14.7733 64.1229C15.3119 63.19 16.3074 62.6154 17.3846 62.6154C24.046 62.6154 29.4462 57.2152 29.4462 50.5538V47.5385H6.83078C3.49997 47.5386 0.8 44.8385 0.8 41.5077V17.3846C0.8 14.0538 3.49997 11.3537 6.83078 11.3538H29.4462C32.7767 11.354 35.4769 14.054 35.4769 17.3846ZM73.1692 11.3538H50.5538C47.223 11.3537 44.5231 14.0538 44.5231 17.3846V41.5077C44.5231 44.8385 47.223 47.5386 50.5538 47.5385H73.1692V50.5538C73.1692 57.2154 67.7693 62.6157 61.1077 62.6154C58.7864 62.6155 57.3356 65.1284 58.4964 67.1386C59.035 68.0714 60.0304 68.6461 61.1077 68.6461C71.0955 68.6357 79.1896 60.5416 79.2 50.5538V17.3846C79.2 14.054 76.4998 11.354 73.1692 11.3538Z" fill="var(--fill-0, #DADCE0)"/>
</g>
</svg>
