<svg preserveAspectRatio="none" width="100%" height="100%" overflow="visible" style="display: block;" viewBox="0 0 20 20" fill="none" xmlns="http://www.w3.org/2000/svg">
<g id="instagram">
<path id="Vector" d="M2.08333 10C2.08333 6.26805 2.08333 4.40207 3.2427 3.2427C4.40207 2.08333 6.26805 2.08333 10 2.08333C13.7319 2.08333 15.5979 2.08333 16.7573 3.2427C17.9167 4.40207 17.9167 6.26805 17.9167 10C17.9167 13.7319 17.9167 15.5979 16.7573 16.7573C15.5979 17.9167 13.7319 17.9167 10 17.9167C6.26805 17.9167 4.40207 17.9167 3.2427 16.7573C2.08333 15.5979 2.08333 13.7319 2.08333 10Z" stroke="var(--stroke-0, white)" stroke-width="1.25" stroke-linejoin="round"/>
<path id="Vector_2" d="M13.75 10C13.75 12.0711 12.0711 13.75 10 13.75C7.92893 13.75 6.25 12.0711 6.25 10C6.25 7.92893 7.92893 6.25 10 6.25C12.0711 6.25 13.75 7.92893 13.75 10Z" stroke="var(--stroke-0, white)" stroke-width="1.25"/>
<path id="Vector_3" d="M14.5908 5.41667H14.5833" stroke="var(--stroke-0, white)" stroke-width="1.66667" stroke-linecap="round" stroke-linejoin="round"/>
</g>
</svg>
