<svg preserveAspectRatio="none" width="100%" height="100%" overflow="visible" style="display: block;" viewBox="0 0 14.6245 23.2915" fill="none" xmlns="http://www.w3.org/2000/svg">
<g id="elements">
<path id="Layer" d="M13.8857 19.8619C13.9571 19.9406 14.0227 20.0151 14.0817 20.0855C14.2787 20.3205 14.5003 20.6188 14.5793 20.9784C14.7467 21.7403 14.4422 22.5483 13.7812 22.9874C13.4663 23.1964 13.0915 23.246 12.7935 23.2682C12.4804 23.2915 12.0787 23.2915 11.604 23.2915H3.53535C3.04274 23.2915 2.62626 23.2915 2.30219 23.2667C1.99414 23.2432 1.60629 23.1904 1.28463 22.9681C0.649597 22.529 0.356065 21.7454 0.51 21.0016C0.587222 20.6285 0.817258 20.3202 1.02181 20.078C1.08152 20.0073 1.1477 19.9326 1.21978 19.8539C1.50953 19.5373 1.65441 19.3791 1.86303 19.2872C2.07164 19.1954 2.30206 19.1954 2.76288 19.1954H12.3337C12.7978 19.1954 13.0298 19.1954 13.2393 19.2881C13.4488 19.3808 13.5944 19.5412 13.8857 19.8619Z" fill="var(--fill-0, #070A0F)"/>
<path id="Layer_2" d="M11.7127 11.4442C10.993 12.1114 9.88837 12.1114 9.16873 11.4442C8.84324 11.1124 8.55302 11.1193 8.44859 11.1642C8.23696 11.248 7.71909 11.4042 7.34069 11.3588C6.9713 11.3381 6.4403 11.1664 5.80076 10.5385C5.48056 10.2241 4.96614 10.2288 4.65176 10.549C4.33738 10.8692 4.3421 11.3836 4.6623 11.698C5.52966 12.5496 6.41758 12.9347 7.24991 12.9813C7.5236 12.9966 7.91442 12.9862 8.58526 12.7987C8.78859 12.7419 8.89025 12.7135 8.97312 12.7339C9.05599 12.7542 9.1375 12.8309 9.30052 12.9842C9.36474 13.0446 9.43159 13.1036 9.5011 13.161C10.3865 13.8922 11.0606 14.4488 11.5351 14.8564C11.7729 15.0607 11.9695 15.2352 12.1215 15.3802C12.3406 15.6031 12.7987 16.1615 12.8782 16.6119C12.9537 16.8656 12.9806 17.1362 12.9932 17.4217C12.9966 17.4987 12.9983 17.5371 12.9919 17.5727C12.9694 17.6986 12.8682 17.8044 12.7434 17.8325C12.7082 17.8404 12.667 17.8404 12.5848 17.8404H2.79055C2.48445 17.8404 2.33141 17.8404 2.23624 17.7453C2.14107 17.6503 2.1409 17.4972 2.14055 17.1911L2.13848 15.35C2.13843 15.3046 2.1384 15.2819 2.13395 15.2554C2.12949 15.2288 2.12389 15.2126 2.11268 15.18C2.10008 15.1434 2.08548 15.1067 2.07258 15.0875C2.01535 15.0005 1.93382 14.8895 1.79694 14.7032C0.153073 12.4664 -0.286782 10.1848 0.169428 8.20388C0.558565 6.51423 1.58657 5.10547 2.9537 4.1833C3.09106 4.09065 3.15974 4.04432 3.19621 3.98648C3.23269 3.92863 3.24518 3.84469 3.27018 3.67682C3.5316 1.92103 4.62473 0.890583 5.66757 0.355179C5.85805 0.25706 6.1424 0.110614 6.37649 0.0486176C6.70452 -0.0382595 7.06364 -0.02013 7.41068 0.197946C7.79329 0.438379 7.9839 0.827902 8.08447 1.13486C8.19089 1.45967 8.23946 1.8228 8.25499 2.1722C8.26484 2.39377 8.26197 2.62421 8.24784 2.85552C8.23199 3.11519 8.22406 3.24503 8.27209 3.3292C8.32012 3.41336 8.44657 3.47803 8.69949 3.60735C9.52937 4.03172 10.1578 4.79188 10.3545 5.65739C10.3814 5.77542 10.3948 5.83443 10.4167 5.87437C10.4386 5.91432 10.4741 5.9501 10.545 6.02167L12.211 7.70358C12.4549 7.93163 12.7028 8.2846 12.8598 8.66271C13.0397 9.09573 13.0782 9.60371 12.8327 10.1421C12.6831 10.47 12.4511 10.7378 12.257 10.9357C12.1194 11.0758 11.838 11.331 11.7127 11.4442Z" fill="var(--fill-0, #070A0F)"/>
</g>
</svg>
