<svg preserveAspectRatio="none" width="100%" height="100%" overflow="visible" style="display: block;" viewBox="0 0 20 20" fill="none" xmlns="http://www.w3.org/2000/svg">
<g id="linkedin-02">
<path id="Vector" d="M3.75 7.91667H3.33333C2.54766 7.91667 2.15483 7.91667 1.91074 8.16074C1.66667 8.40483 1.66667 8.79767 1.66667 9.58333V16.6667C1.66667 17.4523 1.66667 17.8452 1.91074 18.0893C2.15483 18.3333 2.54766 18.3333 3.33333 18.3333H3.75C4.53567 18.3333 4.92851 18.3333 5.17259 18.0893C5.41667 17.8452 5.41667 17.4523 5.41667 16.6667V9.58333C5.41667 8.79767 5.41667 8.40483 5.17259 8.16074C4.92851 7.91667 4.53567 7.91667 3.75 7.91667Z" stroke="var(--stroke-0, white)" stroke-width="1.25"/>
<path id="Vector_2" d="M5.41667 3.54167C5.41667 4.5772 4.5772 5.41667 3.54167 5.41667C2.50613 5.41667 1.66667 4.5772 1.66667 3.54167C1.66667 2.50613 2.50613 1.66667 3.54167 1.66667C4.5772 1.66667 5.41667 2.50613 5.41667 3.54167Z" stroke="var(--stroke-0, white)" stroke-width="1.25"/>
<path id="Vector_3" d="M10.2717 7.91667H9.58333C8.79767 7.91667 8.40483 7.91667 8.16074 8.16074C7.91667 8.40483 7.91667 8.79767 7.91667 9.58333V16.6667C7.91667 17.4523 7.91667 17.8452 8.16074 18.0893C8.40483 18.3333 8.79767 18.3333 9.58333 18.3333H10C10.7857 18.3333 11.1785 18.3333 11.4226 18.0893C11.6667 17.8452 11.6667 17.4523 11.6667 16.6667L11.6667 13.7501C11.6667 12.3694 12.1067 11.2501 13.4066 11.2501C14.0564 11.2501 14.5833 11.8098 14.5833 12.5001V16.2501C14.5833 17.0357 14.5833 17.4286 14.8274 17.6727C15.0714 17.9167 15.4643 17.9167 16.25 17.9167H16.6656C17.4511 17.9167 17.8438 17.9168 18.0879 17.6728C18.332 17.4288 18.3321 17.036 18.3322 16.2505L18.3334 11.6668C18.3334 9.59583 16.3637 7.91687 14.414 7.91687C13.3041 7.91687 12.3139 8.46092 11.6667 9.31167C11.6667 8.78658 11.6667 8.52408 11.5527 8.32917C11.4804 8.20572 11.3776 8.10294 11.2542 8.03073C11.0592 7.91667 10.7967 7.91667 10.2717 7.91667Z" stroke="var(--stroke-0, white)" stroke-width="1.25" stroke-linejoin="round"/>
</g>
</svg>
