<svg preserveAspectRatio="none" width="100%" height="100%" overflow="visible" style="display: block;" viewBox="0 0 20 20" fill="none" xmlns="http://www.w3.org/2000/svg">
<g id="facebook-02">
<path id="Vector" fill-rule="evenodd" clip-rule="evenodd" d="M5.15152 8.61108C4.33672 8.61108 4.16667 8.771 4.16667 9.537V10.9259C4.16667 11.692 4.33672 11.8518 5.15152 11.8518H7.12121V17.4074C7.12121 18.1734 7.29126 18.3333 8.10606 18.3333H10.0758C10.8906 18.3333 11.0606 18.1734 11.0606 17.4074V11.8518H13.2722C13.8902 11.8518 14.0495 11.7389 14.2193 11.1803L14.6413 9.79142C14.9321 8.8345 14.7529 8.61108 13.6943 8.61108H11.0606V6.2963C11.0606 5.78492 11.5015 5.37037 12.0454 5.37037H14.8485C15.6632 5.37037 15.8333 5.21049 15.8333 4.44444V2.59259C15.8333 1.82654 15.6632 1.66667 14.8485 1.66667H12.0454C9.32583 1.66667 7.12121 3.73943 7.12121 6.2963V8.61108H5.15152Z" stroke="var(--stroke-0, white)" stroke-width="1.25" stroke-linejoin="round"/>
</g>
</svg>
