<svg preserveAspectRatio="none" width="100%" height="100%" overflow="visible" style="display: block;" viewBox="0 0 19.5 21.125" fill="none" xmlns="http://www.w3.org/2000/svg">
<path id="Vector" d="M17.875 1.625H15.4375V0.8125C15.4375 0.597012 15.3519 0.390349 15.1995 0.237976C15.0472 0.0856024 14.8405 0 14.625 0C14.4095 0 14.2028 0.0856024 14.0505 0.237976C13.8981 0.390349 13.8125 0.597012 13.8125 0.8125V1.625H5.6875V0.8125C5.6875 0.597012 5.6019 0.390349 5.44952 0.237976C5.29715 0.0856024 5.09049 0 4.875 0C4.65951 0 4.45285 0.0856024 4.30048 0.237976C4.1481 0.390349 4.0625 0.597012 4.0625 0.8125V1.625H1.625C1.19402 1.625 0.780698 1.7962 0.475951 2.10095C0.171205 2.4057 0 2.81902 0 3.25V19.5C0 19.931 0.171205 20.3443 0.475951 20.649C0.780698 20.9538 1.19402 21.125 1.625 21.125H17.875C18.306 21.125 18.7193 20.9538 19.024 20.649C19.3288 20.3443 19.5 19.931 19.5 19.5V3.25C19.5 2.81902 19.3288 2.4057 19.024 2.10095C18.7193 1.7962 18.306 1.625 17.875 1.625ZM8.125 17.0625C8.125 17.278 8.0394 17.4847 7.88702 17.637C7.73465 17.7894 7.52799 17.875 7.3125 17.875C7.09701 17.875 6.89035 17.7894 6.73798 17.637C6.5856 17.4847 6.5 17.278 6.5 17.0625V11.8767L6.05109 12.1022C5.85823 12.1986 5.63496 12.2145 5.4304 12.1463C5.22584 12.0781 5.05674 11.9315 4.96031 11.7386C4.86388 11.5457 4.84801 11.3225 4.9162 11.1179C4.98439 10.9133 5.13104 10.7442 5.32391 10.6478L6.94891 9.83531C7.07282 9.7733 7.21054 9.74402 7.34897 9.75024C7.4874 9.75646 7.62194 9.79798 7.73979 9.87085C7.85765 9.94372 7.95491 10.0455 8.02234 10.1666C8.08976 10.2876 8.1251 10.4239 8.125 10.5625V17.0625ZM13.8125 16.25C14.028 16.25 14.2347 16.3356 14.387 16.488C14.5394 16.6403 14.625 16.847 14.625 17.0625C14.625 17.278 14.5394 17.4847 14.387 17.637C14.2347 17.7894 14.028 17.875 13.8125 17.875H10.5625C10.4116 17.875 10.2637 17.833 10.1353 17.7537C10.007 17.6743 9.90326 17.5608 9.83578 17.4259C9.7683 17.2909 9.73973 17.1398 9.75328 16.9895C9.76683 16.8393 9.82197 16.6957 9.9125 16.575L12.8355 12.678C12.902 12.5895 12.9497 12.4884 12.9756 12.3808C13.0016 12.2732 13.0053 12.1614 12.9866 12.0523C12.9678 11.9432 12.9269 11.8391 12.8665 11.7463C12.806 11.6536 12.7272 11.5742 12.635 11.513C12.5428 11.4518 12.439 11.4101 12.33 11.3905C12.2211 11.3708 12.1093 11.3736 12.0015 11.3988C11.8937 11.4239 11.7921 11.4708 11.7031 11.5365C11.614 11.6023 11.5394 11.6856 11.4837 11.7812C11.4319 11.8766 11.3615 11.9606 11.2768 12.0283C11.192 12.0961 11.0945 12.1461 10.9901 12.1755C10.8857 12.205 10.7764 12.2132 10.6687 12.1997C10.5611 12.1863 10.4572 12.1514 10.3633 12.0971C10.2693 12.0428 10.1872 11.9703 10.1217 11.8838C10.0562 11.7972 10.0088 11.6985 9.9821 11.5933C9.95542 11.4881 9.95007 11.3787 9.96638 11.2714C9.98268 11.1642 10.0203 11.0612 10.077 10.9688C10.3454 10.5043 10.7595 10.1413 11.2552 9.93616C11.7508 9.73098 12.3003 9.69503 12.8184 9.83388C13.3366 9.97273 13.7944 10.2786 14.1211 10.7042C14.4477 11.1297 14.6248 11.6511 14.625 12.1875C14.6267 12.7174 14.454 13.2331 14.1334 13.6551L12.1875 16.25H13.8125ZM1.625 6.5V3.25H4.0625V4.0625C4.0625 4.27799 4.1481 4.48465 4.30048 4.63702C4.45285 4.7894 4.65951 4.875 4.875 4.875C5.09049 4.875 5.29715 4.7894 5.44952 4.63702C5.6019 4.48465 5.6875 4.27799 5.6875 4.0625V3.25H13.8125V4.0625C13.8125 4.27799 13.8981 4.48465 14.0505 4.63702C14.2028 4.7894 14.4095 4.875 14.625 4.875C14.8405 4.875 15.0472 4.7894 15.1995 4.63702C15.3519 4.48465 15.4375 4.27799 15.4375 4.0625V3.25H17.875V6.5H1.625Z" fill="var(--fill-0, #070A0F)"/>
</svg>
