<svg preserveAspectRatio="none" width="100%" height="100%" overflow="visible" style="display: block;" viewBox="0 0 21.1135 21.1132" fill="none" xmlns="http://www.w3.org/2000/svg">
<path id="Vector" d="M18.673 7.31526C18.673 7.07421 18.7445 6.83858 18.8784 6.63816C19.0123 6.43774 19.2026 6.28153 19.4253 6.18928C19.648 6.09704 19.8931 6.0729 20.1295 6.11993C20.3659 6.16695 20.5831 6.28303 20.7535 6.45347C20.924 6.62392 21.04 6.84108 21.0871 7.07749C21.1341 7.31391 21.1099 7.55896 21.0177 7.78166C20.9255 8.00435 20.7692 8.1947 20.5688 8.32861C20.3684 8.46253 20.1328 8.53401 19.8917 8.53401C19.5685 8.53401 19.2585 8.40561 19.0299 8.17705C18.8014 7.94849 18.673 7.63849 18.673 7.31526ZM17.4542 4.87776C17.6953 4.87776 17.9309 4.80628 18.1313 4.67236C18.3317 4.53845 18.488 4.3481 18.5802 4.12541C18.6724 3.90271 18.6966 3.65766 18.6496 3.42124C18.6025 3.18483 18.4865 2.96767 18.316 2.79722C18.1456 2.62678 17.9284 2.5107 17.692 2.46368C17.4556 2.41665 17.2105 2.44079 16.9878 2.53303C16.7651 2.62528 16.5748 2.78149 16.4409 2.98191C16.307 3.18233 16.2355 3.41796 16.2355 3.65901C16.2355 3.98224 16.3639 4.29224 16.5924 4.5208C16.821 4.74936 17.131 4.87776 17.4542 4.87776ZM20.365 10.5653C20.1503 10.5476 19.9374 10.6158 19.7731 10.755C19.6087 10.8942 19.5064 11.093 19.4885 11.3077C19.3431 13.0063 18.7156 14.628 17.6798 15.982C16.644 17.3361 15.243 18.3661 13.6416 18.951C12.0403 19.5358 10.3052 19.6511 8.64053 19.2833C6.97588 18.9154 5.45091 18.0798 4.24505 16.8747C3.03919 15.6696 2.20262 14.1452 1.83376 12.4808C1.46489 10.8163 1.57909 9.0812 2.16291 7.47948C2.74673 5.87776 3.77588 4.47611 5.12928 3.43944C6.48267 2.40278 8.10401 1.77423 9.8025 1.62776C9.9092 1.61896 10.0131 1.58923 10.1083 1.54026C10.2035 1.4913 10.2882 1.42406 10.3574 1.34239C10.4266 1.26071 10.4791 1.16621 10.5118 1.06426C10.5445 0.962316 10.5568 0.854928 10.548 0.748229C10.5392 0.64153 10.5094 0.53761 10.4605 0.442401C10.4115 0.347193 10.3443 0.262561 10.2626 0.193338C10.1809 0.124115 10.0864 0.0716558 9.98447 0.0389565C9.88253 0.00625712 9.77514 -0.00604226 9.66844 0.00276041C7.66159 0.175382 5.74579 0.917578 4.14643 2.14203C2.54707 3.36648 1.33068 5.02225 0.640379 6.91453C-0.0499209 8.80681 -0.185418 10.8569 0.249829 12.8236C0.685076 14.7902 1.67296 16.5917 3.09726 18.016C4.52155 19.4403 6.32301 20.4282 8.28968 20.8634C10.2564 21.2987 12.3064 21.1632 14.1987 20.4729C16.091 19.7826 17.7468 18.5662 18.9712 16.9668C20.1957 15.3674 20.9379 13.4516 21.1105 11.4448C21.1196 11.338 21.1076 11.2305 21.0751 11.1284C21.0425 11.0263 20.9901 10.9316 20.9208 10.8499C20.8515 10.7681 20.7667 10.7009 20.6713 10.6521C20.5759 10.6032 20.4718 10.5737 20.365 10.5653ZM10.548 3.25276C11.9942 3.25276 13.408 3.68163 14.6106 4.48514C15.8131 5.28865 16.7504 6.4307 17.3038 7.76689C17.8573 9.10307 18.0021 10.5734 17.72 11.9919C17.4378 13.4103 16.7414 14.7133 15.7187 15.736C14.696 16.7586 13.3931 17.4551 11.9746 17.7373C10.5561 18.0194 9.08578 17.8746 7.7496 17.3211C6.41342 16.7677 5.27136 15.8304 4.46785 14.6279C3.66434 13.4253 3.23547 12.0115 3.23547 10.5653C3.23762 8.62652 4.00874 6.76781 5.37963 5.39692C6.75052 4.02602 8.60924 3.25491 10.548 3.25276ZM9.73547 10.5653C9.73547 10.7807 9.82108 10.9874 9.97345 11.1398C10.1258 11.2922 10.3325 11.3778 10.548 11.3778H15.423C15.6385 11.3778 15.8451 11.2922 15.9975 11.1398C16.1499 10.9874 16.2355 10.7807 16.2355 10.5653C16.2355 10.3498 16.1499 10.1431 15.9975 9.99074C15.8451 9.83836 15.6385 9.75276 15.423 9.75276H11.3605V5.69026C11.3605 5.47477 11.2749 5.26811 11.1225 5.11574C10.9701 4.96336 10.7635 4.87776 10.548 4.87776C10.3325 4.87776 10.1258 4.96336 9.97345 5.11574C9.82108 5.26811 9.73547 5.47477 9.73547 5.69026V10.5653ZM13.798 2.44026C14.039 2.44026 14.2747 2.36878 14.4751 2.23486C14.6755 2.10095 14.8317 1.9106 14.924 1.68791C15.0162 1.46521 15.0403 1.22016 14.9933 0.983744C14.9463 0.74733 14.8302 0.530169 14.6598 0.359724C14.4893 0.189279 14.2722 0.0732042 14.0357 0.0261784C13.7993 -0.0208473 13.5543 0.00328802 13.3316 0.0955323C13.1089 0.187777 12.9185 0.343987 12.7846 0.544409C12.6507 0.744832 12.5792 0.980464 12.5792 1.22151C12.5792 1.54474 12.7076 1.85474 12.9362 2.0833C13.1647 2.31186 13.4747 2.44026 13.798 2.44026Z" fill="var(--fill-0, #041A12)"/>
</svg>
