<svg preserveAspectRatio="none" width="100%" height="100%" overflow="visible" style="display: block;" viewBox="0 0 117.333 44" fill="none" xmlns="http://www.w3.org/2000/svg">
<g id="Logotext">
<g id="Vector">
<path fill-rule="evenodd" clip-rule="evenodd" d="M30.5679 11.734C29.4357 11.734 28.5778 12.5255 28.5778 13.6499C28.5778 14.794 29.4305 15.6152 30.5679 15.6152C31.7019 15.6152 32.5827 14.7972 32.5827 13.6499C32.5827 12.5223 31.6966 11.734 30.5679 11.734Z" fill="var(--fill-0, #6E737A)"/>
<path fill-rule="evenodd" clip-rule="evenodd" d="M73.1833 11.734C72.0512 11.734 71.1932 12.5255 71.1932 13.6499C71.1932 14.794 72.0459 15.6152 73.1833 15.6152C74.3174 15.6152 75.1982 14.7972 75.1982 13.6499C75.1982 12.5223 74.3121 11.734 73.1833 11.734Z" fill="var(--fill-0, #6E737A)"/>
<path d="M32.4726 17.1332H28.7106V30.2507H32.4726V17.1332Z" fill="var(--fill-0, #6E737A)"/>
<path d="M0 12.6782H12.2513V15.871H3.78675V19.8805H11.9543V22.999H3.78675V27.058H12.4493V30.2507H0V12.6782Z" fill="var(--fill-0, #6E737A)"/>
<path fill-rule="evenodd" clip-rule="evenodd" d="M14.1835 33.9632V17.1332H17.7722L17.8465 19.0637C18.5642 17.6282 19.9255 16.8362 21.757 16.8362C25.4695 16.8362 27.3505 19.831 27.3505 23.692C27.3505 27.553 25.4695 30.5477 21.757 30.5477C20.0492 30.5477 18.7127 29.8052 17.9455 28.4192V33.9632H14.1835ZM17.698 23.692C17.698 25.8452 18.6137 27.7015 20.5937 27.7015C22.5985 27.7015 23.5142 25.8452 23.5142 23.692C23.5142 21.5635 22.549 19.6825 20.5937 19.6825C18.6137 19.6825 17.698 21.5635 17.698 23.692Z" fill="var(--fill-0, #6E737A)"/>
<path d="M43.2715 22.1575C43.0488 20.5735 42.0093 19.7072 40.6975 19.7072C38.8413 19.7072 37.8018 21.1675 37.8018 23.692C37.8018 26.2165 38.8413 27.6767 40.6975 27.6767C42.0835 27.6767 43.0983 26.8105 43.321 25.1027L47.182 25.2512C46.8355 28.5182 44.1873 30.5477 40.6975 30.5477C36.6385 30.5477 33.9655 27.85 33.9655 23.692C33.9655 19.534 36.6385 16.8362 40.6975 16.8362C44.0883 16.8362 46.7613 18.7915 47.1078 21.9842L43.2715 22.1575Z" fill="var(--fill-0, #6E737A)"/>
<path d="M56.6326 30.2507H60.0234V17.1332H56.2861V24.3355C56.2861 26.4145 55.4694 27.5777 53.9349 27.5777C52.4251 27.5777 51.9796 26.4145 51.9796 24.3355V17.1332H48.2176V25.573C48.2176 28.6172 49.8759 30.5477 52.6974 30.5477C54.3804 30.5477 55.8406 29.9042 56.5584 28.1965L56.6326 30.2507Z" fill="var(--fill-0, #6E737A)"/>
<path d="M62.2855 17.1332H65.8495L65.9238 19.7567C66.4435 17.9995 67.4335 17.1332 69.0918 17.1332H70.2797V19.93H69.0423C66.889 19.93 66.0475 20.92 66.0475 22.9495V30.2507H62.2855V17.1332Z" fill="var(--fill-0, #6E737A)"/>
<path d="M75.088 17.1332H71.326V30.2507H75.088V17.1332Z" fill="var(--fill-0, #6E737A)"/>
<path fill-rule="evenodd" clip-rule="evenodd" d="M83.313 30.5477C79.254 30.5477 76.581 27.85 76.581 23.692C76.581 19.534 79.254 16.8362 83.313 16.8362C87.372 16.8362 90.045 19.534 90.045 23.692C90.045 27.85 87.372 30.5477 83.313 30.5477ZM80.4172 23.692C80.4172 26.2165 81.4567 27.6767 83.313 27.6767C85.1692 27.6767 86.2087 26.2165 86.2087 23.692C86.2087 21.1675 85.1692 19.7072 83.313 19.7072C81.4567 19.7072 80.4172 21.1675 80.4172 23.692Z" fill="var(--fill-0, #6E737A)"/>
<path d="M99.7557 30.2507H103.146V17.1332H99.4091V24.3355C99.4091 26.4145 98.5924 27.5777 97.0579 27.5777C95.5482 27.5777 95.1027 26.4145 95.1027 24.3355V17.1332H91.3407V25.573C91.3407 28.6172 92.9989 30.5477 95.8204 30.5477C97.5034 30.5477 98.9637 29.9042 99.6814 28.1965L99.7557 30.2507Z" fill="var(--fill-0, #6E737A)"/>
<path d="M113.23 21.3902C113.032 20.1775 111.992 19.435 110.854 19.435C109.74 19.435 108.874 20.029 108.923 20.9695C108.973 21.9347 110.086 22.3555 111.324 22.5535C115.185 23.1722 117.091 24.187 117.091 26.662C117.091 29.2855 114.616 30.5477 111.25 30.5477C107.413 30.5477 104.963 28.8895 104.765 26.0927L108.527 25.8947C108.75 27.157 109.666 27.9242 111.175 27.9242C112.116 27.9242 113.254 27.5282 113.254 26.5877C113.231 25.54 112.113 25.3027 110.929 25.0516C110.855 25.0358 110.78 25.0198 110.705 25.0037C107.092 24.3107 105.062 23.4197 105.062 20.9942C105.062 18.3707 107.265 16.8115 111.002 16.8115C114.319 16.8115 116.546 18.4945 116.992 21.2417L113.23 21.3902Z" fill="var(--fill-0, #6E737A)"/>
</g>
</g>
</svg>
