<svg preserveAspectRatio="none" width="100%" height="100%" overflow="visible" style="display: block;" viewBox="0 0 119.167 44" fill="none" xmlns="http://www.w3.org/2000/svg">
<g id="Logotext">
<g id="Vector">
<path d="M12.9449 12.6286V16.3659H4.1834V19.5586H12.2767V23.0979H4.1834V30.2506H0.000651042V12.6286H12.9449Z" fill="var(--fill-0, #6E737A)"/>
<path d="M24.8723 28.7161C23.6513 29.9371 22.026 30.5476 19.9965 30.5476C17.967 30.5476 16.3418 29.9371 15.1208 28.7161C13.8998 27.4951 13.2893 25.8781 13.2893 23.8651C13.2893 21.8356 13.8998 20.2104 15.1208 18.9894C16.3253 17.7849 17.9505 17.1826 19.9965 17.1826C22.0425 17.1826 23.6678 17.7849 24.8723 18.9894C26.0768 20.1939 26.679 21.8191 26.679 23.8651C26.679 25.8946 26.0768 27.5116 24.8723 28.7161ZM19.9965 27.4539C20.8875 27.4539 21.5723 27.1486 22.0508 26.5381C22.5293 25.9276 22.7685 25.0366 22.7685 23.8651C22.7685 22.6936 22.5293 21.8026 22.0508 21.1921C21.5723 20.5816 20.8875 20.2764 19.9965 20.2764C19.089 20.2764 18.396 20.5816 17.9175 21.1921C17.439 21.8026 17.1998 22.6936 17.1998 23.8651C17.1998 25.0366 17.439 25.9276 17.9175 26.5381C18.396 27.1486 19.089 27.4539 19.9965 27.4539Z" fill="var(--fill-0, #6E737A)"/>
<path d="M33.7359 30.5476C31.8549 30.5476 30.3616 30.0361 29.2561 29.0131C28.1671 27.9736 27.6226 26.5629 27.6226 24.7809V17.4796H31.5084V24.8304C31.5084 25.6059 31.7146 26.2081 32.1271 26.6371C32.5396 27.0496 33.0759 27.2559 33.7359 27.2559C34.3959 27.2559 34.9321 27.0496 35.3446 26.6371C35.7571 26.2081 35.9634 25.6059 35.9634 24.8304V17.4796H39.8491V24.7809C39.8491 26.5794 39.2964 27.9819 38.1909 28.9884C37.0689 30.0279 35.5839 30.5476 33.7359 30.5476Z" fill="var(--fill-0, #6E737A)"/>
<path d="M49.0057 17.2816C49.0717 17.2816 49.3522 17.2981 49.8472 17.3311V20.8456H48.8572C46.5967 20.8456 45.4664 22.0006 45.4664 24.3106V30.2506H41.6054V17.4796H45.3674V19.8556C45.9614 18.1396 47.1742 17.2816 49.0057 17.2816Z" fill="var(--fill-0, #6E737A)"/>
<path d="M58.5464 17.1826C60.2624 17.1826 61.6236 17.7849 62.6301 18.9894C63.6201 20.1939 64.1151 21.8191 64.1151 23.8651C64.1151 25.9111 63.6201 27.5364 62.6301 28.7409C61.6236 29.9454 60.2624 30.5476 58.5464 30.5476C56.9129 30.5476 55.6589 29.9289 54.7844 28.6914V35.1016H50.9234V17.4796H54.6854V19.1874C55.5599 17.8509 56.8469 17.1826 58.5464 17.1826ZM57.4821 27.4539C58.3401 27.4539 59.0084 27.1404 59.4869 26.5134C59.9654 25.8699 60.2046 24.9541 60.2046 23.7661C60.2046 21.4396 59.2971 20.2764 57.4821 20.2764C55.6506 20.2764 54.7349 21.4726 54.7349 23.8651C54.7349 26.2576 55.6506 27.4539 57.4821 27.4539Z" fill="var(--fill-0, #6E737A)"/>
<path d="M76.3803 28.7161C75.1593 29.9371 73.5341 30.5476 71.5046 30.5476C69.4751 30.5476 67.8498 29.9371 66.6288 28.7161C65.4078 27.4951 64.7973 25.8781 64.7973 23.8651C64.7973 21.8356 65.4078 20.2104 66.6288 18.9894C67.8333 17.7849 69.4586 17.1826 71.5046 17.1826C73.5506 17.1826 75.1758 17.7849 76.3803 18.9894C77.5848 20.1939 78.1871 21.8191 78.1871 23.8651C78.1871 25.8946 77.5848 27.5116 76.3803 28.7161ZM71.5046 27.4539C72.3956 27.4539 73.0803 27.1486 73.5588 26.5381C74.0373 25.9276 74.2766 25.0366 74.2766 23.8651C74.2766 22.6936 74.0373 21.8026 73.5588 21.1921C73.0803 20.5816 72.3956 20.2764 71.5046 20.2764C70.5971 20.2764 69.9041 20.5816 69.4256 21.1921C68.9471 21.8026 68.7078 22.6936 68.7078 23.8651C68.7078 25.0366 68.9471 25.9276 69.4256 26.5381C69.9041 27.1486 70.5971 27.4539 71.5046 27.4539Z" fill="var(--fill-0, #6E737A)"/>
<path d="M81.327 16.1431C80.766 16.1431 80.2875 15.9534 79.8915 15.5739C79.512 15.1779 79.3223 14.7076 79.3223 14.1631C79.3223 13.6021 79.512 13.1319 79.8915 12.7524C80.2875 12.3564 80.766 12.1584 81.327 12.1584C81.8715 12.1584 82.3335 12.3564 82.713 12.7524C83.109 13.1319 83.307 13.6021 83.307 14.1631C83.307 14.7076 83.109 15.1779 82.713 15.5739C82.3335 15.9534 81.8715 16.1431 81.327 16.1431ZM83.2575 30.2506H79.3965V17.4796H83.2575V30.2506Z" fill="var(--fill-0, #6E737A)"/>
<path d="M105.94 17.4796V20.3011H103.489V26.2659C103.489 26.6949 103.597 26.9919 103.811 27.1569C104.026 27.3054 104.405 27.3796 104.95 27.3796H105.94V30.2506C105.478 30.3166 104.884 30.3496 104.158 30.3496C102.557 30.3496 101.402 30.0691 100.693 29.5081C99.9832 28.9306 99.6285 27.9901 99.6285 26.6866V20.3011H97.7227V17.4796H99.6285V13.6929H103.489V17.4796H105.94Z" fill="var(--fill-0, #6E737A)"/>
<path d="M112.504 30.6219C110.491 30.6219 108.989 30.2754 107.999 29.5824C107.026 28.8729 106.481 27.7426 106.366 26.1916H110.128C110.194 26.8681 110.408 27.3466 110.771 27.6271C111.151 27.9076 111.753 28.0479 112.578 28.0479C114.013 28.0479 114.731 27.6354 114.731 26.8104C114.731 26.4144 114.574 26.1174 114.261 25.9194C113.947 25.7049 113.37 25.5316 112.528 25.3996L110.87 25.1274C107.999 24.6819 106.564 23.3784 106.564 21.2169C106.564 19.9299 107.059 18.9399 108.049 18.2469C109.039 17.5374 110.458 17.1826 112.306 17.1826C116.117 17.1826 118.097 18.6429 118.246 21.5634H114.657C114.64 20.3589 113.857 19.7566 112.306 19.7566C111.002 19.7566 110.35 20.1609 110.35 20.9694C110.35 21.3324 110.499 21.6129 110.796 21.8109C111.093 22.0089 111.563 22.1574 112.207 22.2564L114.112 22.5286C115.647 22.7596 116.777 23.1969 117.503 23.8404C118.229 24.4839 118.592 25.3666 118.592 26.4886C118.592 27.8086 118.056 28.8316 116.983 29.5576C115.927 30.2671 114.434 30.6219 112.504 30.6219Z" fill="var(--fill-0, #6E737A)"/>
<path d="M91.1256 17.1826C89.2446 17.1826 87.7513 17.6941 86.6458 18.7171C85.5568 19.7566 85.0123 21.1674 85.0123 22.9494V30.2506H88.8981V22.8999C88.8981 22.1244 89.1043 21.5221 89.5168 21.0931C89.9293 20.6806 90.4656 20.4744 91.1256 20.4744C91.7856 20.4744 92.3218 20.6806 92.7343 21.0931C93.1468 21.5221 93.3531 22.1244 93.3531 22.8999V30.2506H97.2388V22.9494C97.2388 21.1509 96.6861 19.7484 95.5806 18.7419C94.4586 17.7024 92.9736 17.1826 91.1256 17.1826Z" fill="var(--fill-0, #6E737A)"/>
</g>
</g>
</svg>
