<svg preserveAspectRatio="none" width="100%" height="100%" overflow="visible" style="display: block;" viewBox="0 0 84.3333 44" fill="none" xmlns="http://www.w3.org/2000/svg">
<g id="Logotext">
<g id="Vector">
<path d="M0 30.2495V12.2067H13.7363V15.647H4.059V19.4832H12.474V22.7007H4.059V26.8092H13.7363V30.2495H0Z" fill="var(--fill-0, #6E737A)"/>
<path d="M20.5284 30.497C19.0599 30.497 17.9626 30.0185 17.2366 29.0615C16.5106 28.088 16.1476 26.8092 16.1476 25.2252V16.9587H19.9344V24.6807C19.9344 25.7367 20.1406 26.4627 20.5531 26.8587C20.9821 27.2382 21.5514 27.428 22.2609 27.428C23.1024 27.428 23.7376 27.1475 24.1666 26.5865C24.5956 26.0255 24.8101 25.2912 24.8101 24.3837V16.9587H28.5969V30.2495H25.0576L24.7854 28.0715H24.5874C24.2904 28.7975 23.7789 29.3832 23.0529 29.8287C22.3434 30.2742 21.5019 30.497 20.5284 30.497Z" fill="var(--fill-0, #6E737A)"/>
<path d="M31.4385 30.2495V16.9587H34.9777L35.25 19.1615H35.4727C35.7697 18.3365 36.1657 17.7342 36.6607 17.3547C37.1557 16.9587 37.8652 16.7607 38.7892 16.7607H39.9772V20.6217H38.2695C37.1805 20.6217 36.405 20.9022 35.943 21.4632C35.481 22.0077 35.25 22.742 35.25 23.666V30.2495H31.4385Z" fill="var(--fill-0, #6E737A)"/>
<path d="M47.2673 30.497C45.1058 30.497 43.497 29.8782 42.441 28.6407C41.385 27.4032 40.857 25.7532 40.857 23.6907V23.6165C40.857 21.2735 41.4428 19.541 42.6143 18.419C43.7858 17.2805 45.3368 16.7112 47.2673 16.7112C49.2143 16.7112 50.7735 17.2805 51.945 18.419C53.133 19.541 53.727 21.2735 53.727 23.6165V23.6907C53.7105 25.7532 53.1743 27.4032 52.1183 28.6407C51.0623 29.8782 49.4453 30.497 47.2673 30.497ZM47.2673 27.428C48.1088 27.428 48.744 27.197 49.173 26.735C49.6185 26.273 49.8413 25.6377 49.8413 24.8292V22.4532C49.8413 21.6282 49.6103 20.9847 49.1483 20.5227C48.7028 20.0442 48.0758 19.805 47.2673 19.805C46.4753 19.805 45.8483 20.0442 45.3863 20.5227C44.9408 20.9847 44.718 21.6282 44.718 22.4532V24.8292C44.718 25.6377 44.9325 26.273 45.3615 26.735C45.807 27.197 46.4423 27.428 47.2673 27.428Z" fill="var(--fill-0, #6E737A)"/>
<path d="M55.8027 34.3827V16.9587H59.4162L59.6142 18.914H59.7875C60.1175 18.221 60.629 17.6847 61.322 17.3052C62.0315 16.9092 62.8235 16.7112 63.698 16.7112C65.48 16.7112 66.7752 17.3135 67.5837 18.518C68.3922 19.7225 68.7965 21.3312 68.7965 23.3442V23.9135C68.7965 26.207 68.3345 27.8817 67.4105 28.9377C66.503 29.9772 65.2655 30.497 63.698 30.497C62.84 30.497 62.0562 30.3072 61.3467 29.9277C60.6372 29.5317 60.1175 28.9872 59.7875 28.2942H59.6142V34.3827H55.8027ZM62.1635 27.4032C62.9885 27.4032 63.6237 27.1722 64.0692 26.7102C64.5147 26.2482 64.7375 25.5965 64.7375 24.755V22.478C64.7375 21.6365 64.5147 20.9847 64.0692 20.5227C63.6237 20.0442 62.9885 19.805 62.1635 19.805C61.388 19.805 60.7692 20.0442 60.3072 20.5227C59.8617 21.0012 59.639 21.6695 59.639 22.5275V24.7055C59.639 25.5635 59.8617 26.2317 60.3072 26.7102C60.7692 27.1722 61.388 27.4032 62.1635 27.4032Z" fill="var(--fill-0, #6E737A)"/>
<path d="M74.1154 30.497C72.8944 30.497 71.9044 30.1752 71.1454 29.5317C70.3864 28.8717 70.0069 27.9972 70.0069 26.9082V26.8587C70.0069 25.5882 70.4112 24.6065 71.2197 23.9135C72.0282 23.2205 73.1172 22.7915 74.4867 22.6265L78.1992 22.1315V21.6117C78.1992 20.3577 77.4402 19.7307 75.9222 19.7307C75.1962 19.7307 74.6187 19.871 74.1897 20.1515C73.7772 20.432 73.5709 20.8362 73.5709 21.3642H70.1307C70.1307 19.8957 70.6669 18.7572 71.7394 17.9487C72.8119 17.1237 74.3217 16.7112 76.2687 16.7112C78.0507 16.7112 79.4449 17.0907 80.4514 17.8497C81.4744 18.6087 81.9859 19.8132 81.9859 21.4632V27.5765H83.7184V30.2495H79.1644L78.8674 28.1952H78.5952C78.2652 28.9212 77.7124 29.4905 76.9369 29.903C76.1779 30.299 75.2374 30.497 74.1154 30.497ZM75.7489 27.7745C76.4089 27.7745 76.9617 27.6177 77.4072 27.3042C77.8692 26.9742 78.1332 26.5535 78.1992 26.042V24.26L75.6994 24.6312C75.1384 24.6972 74.6847 24.8457 74.3382 25.0767C73.9917 25.2912 73.8184 25.6212 73.8184 26.0667V26.3885C73.8184 26.801 73.9834 27.1392 74.3134 27.4032C74.6599 27.6507 75.1384 27.7745 75.7489 27.7745Z" fill="var(--fill-0, #6E737A)"/>
</g>
</g>
</svg>
