<svg preserveAspectRatio="none" width="100%" height="100%" overflow="visible" style="display: block;" viewBox="0 0 25.6667 44" fill="none" xmlns="http://www.w3.org/2000/svg">
<g id="Logomark">
<g id="Vector">
<path d="M9.16667 13.75C9.16667 16.2813 7.11464 18.3333 4.58333 18.3333C2.05203 18.3333 0 16.2813 0 13.75C0 11.2187 2.05203 9.16667 4.58333 9.16667C7.11464 9.16667 9.16667 11.2187 9.16667 13.75Z" fill="var(--fill-0, #6E737A)"/>
<path d="M9.16667 30.25C9.16667 32.7813 7.11464 34.8333 4.58333 34.8333C2.05203 34.8333 0 32.7813 0 30.25C0 27.7187 2.05203 25.6667 4.58333 25.6667C7.11464 25.6667 9.16667 27.7187 9.16667 30.25Z" fill="var(--fill-0, #6E737A)"/>
<path d="M25.6667 13.75C25.6667 16.2813 23.6146 18.3333 21.0833 18.3333C18.552 18.3333 16.5 16.2813 16.5 13.75C16.5 11.2187 18.552 9.16667 21.0833 9.16667C23.6146 9.16667 25.6667 11.2187 25.6667 13.75Z" fill="var(--fill-0, #6E737A)"/>
<path d="M25.6667 30.25C25.6667 32.7813 23.6146 34.8333 21.0833 34.8333C18.552 34.8333 16.5 32.7813 16.5 30.25C16.5 27.7187 18.552 25.6667 21.0833 25.6667C23.6146 25.6667 25.6667 27.7187 25.6667 30.25Z" fill="var(--fill-0, #6E737A)"/>
</g>
</g>
</svg>
