<svg preserveAspectRatio="none" width="100%" height="100%" overflow="visible" style="display: block;" viewBox="0 0 44.0007 44" fill="none" xmlns="http://www.w3.org/2000/svg">
<g id="Logomark">
<g id="Vector">
<path fill-rule="evenodd" clip-rule="evenodd" d="M31.1673 25.6667H25.3528C24.3803 25.6667 23.4477 26.053 22.76 26.7406L21.2413 28.2594C20.5536 28.947 19.621 29.3333 18.6485 29.3333H12.834C9.79642 29.3333 7.33398 26.8709 7.33398 23.8333C7.33398 20.7958 9.79642 18.3333 12.834 18.3333H18.6485C19.621 18.3333 20.5536 17.947 21.2413 17.2594L22.76 15.7406C23.4477 15.053 24.3803 14.6667 25.3528 14.6667H31.1673C34.2049 14.6667 36.6673 17.1291 36.6673 20.1667C36.6673 23.2042 34.2049 25.6667 31.1673 25.6667ZM25.3528 18.3333C24.3803 18.3333 23.4477 18.7196 22.76 19.4073L21.2413 20.9261C20.5536 21.6137 19.621 22 18.6485 22H12.834C11.8215 22 11.0007 22.8208 11.0007 23.8333C11.0007 24.8459 11.8215 25.6667 12.834 25.6667H18.6485C19.621 25.6667 20.5536 25.2804 21.2413 24.5927L22.76 23.0739C23.4477 22.3863 24.3803 22 25.3528 22H31.1673C32.1798 22 33.0007 21.1792 33.0007 20.1667C33.0007 19.1541 32.1798 18.3333 31.1673 18.3333H25.3528Z" fill="var(--fill-0, #6E737A)"/>
<path fill-rule="evenodd" clip-rule="evenodd" d="M31.1673 33H25.3528C24.3803 33 23.4477 33.3863 22.76 34.0739L21.2413 35.5927C20.5536 36.2804 19.621 36.6667 18.6485 36.6667H12.834C5.74633 36.6667 0.000651042 30.921 0.000651042 23.8333C0.000651042 16.7457 5.74633 11 12.834 11H18.6485C19.621 11 20.5536 10.6137 21.2413 9.92606L22.76 8.40728C23.4477 7.71964 24.3803 7.33333 25.3528 7.33333H31.1673C38.255 7.33333 44.0007 13.079 44.0007 20.1667C44.0007 27.2543 38.255 33 31.1673 33ZM25.3528 11C24.3803 11 23.4477 11.3863 22.76 12.0739L21.2413 13.5927C20.5536 14.2804 19.621 14.6667 18.6485 14.6667H12.834C7.77138 14.6667 3.66732 18.7707 3.66732 23.8333C3.66732 28.8959 7.77138 33 12.834 33H18.6485C19.621 33 20.5536 32.6137 21.2413 31.9261L22.76 30.4073C23.4477 29.7196 24.3803 29.3333 25.3528 29.3333H31.1673C36.2299 29.3333 40.334 25.2293 40.334 20.1667C40.334 15.1041 36.2299 11 31.1673 11H25.3528Z" fill="var(--fill-0, #6E737A)"/>
</g>
</g>
</svg>
