<svg preserveAspectRatio="none" width="100%" height="100%" overflow="visible" style="display: block;" viewBox="0 0 36.6216 36.6667" fill="none" xmlns="http://www.w3.org/2000/svg">
<g id="Vector">
<path d="M26.2343 32.2374C25.6814 33.466 24.994 34.6693 24.17 35.7104C31.0066 33.4061 36.0393 27.1805 36.5934 19.7083H34.1597C31.1898 19.7083 28.8042 22.0789 28.3214 25.0093C27.8764 27.7106 27.1645 30.1703 26.2343 32.2374Z" fill="#6E737A"/>
<path d="M20.8514 19.7083C23.9608 19.7083 26.5045 22.3024 25.9333 25.3589C24.6928 31.9978 21.7472 36.6667 18.3108 36.6667C13.9626 36.6667 10.4001 29.1913 10.0837 19.7083H20.8514Z" fill="#6E737A"/>
<path d="M28.3846 12.0543C28.8393 15.0121 31.236 17.4167 34.2286 17.4167H36.6216C36.2437 9.74154 31.1459 3.30749 24.17 0.956239C24.994 1.99734 25.6814 3.20063 26.2343 4.42929C27.2098 6.59724 27.9453 9.197 28.3846 12.0543Z" fill="#6E737A"/>
<path d="M26.0252 11.8211C26.5453 14.8622 24.0127 17.4167 20.9275 17.4167H10.0709C10.2859 7.71731 13.8928 0 18.3108 0C21.8351 0 24.8432 4.91078 26.0252 11.8211Z" fill="#6E737A"/>
<path d="M7.77876 17.4167C7.88289 12.459 8.82868 7.89305 10.3874 4.42929C10.9403 3.20063 11.6276 1.99734 12.4516 0.956239C5.47571 3.30749 0.377936 9.74154 0 17.4167H7.77876Z" fill="#6E737A"/>
<path d="M0.0282681 19.7083C0.582301 27.1805 5.61503 33.4061 12.4516 35.7104C11.6276 34.6693 10.9403 33.466 10.3874 32.2374C8.87683 28.8806 7.94191 24.4887 7.79081 19.7083H0.0282681Z" fill="#6E737A"/>
</g>
</svg>
