<svg preserveAspectRatio="none" width="100%" height="100%" overflow="visible" style="display: block;" viewBox="0 0 117.334 44" fill="none" xmlns="http://www.w3.org/2000/svg">
<g id="Logotext">
<g id="Vector">
<path d="M0 30.2496V13.2711H13.563V16.2906H3.7125V20.0773H12.4245V23.0721H3.7125V27.2053H13.7115V30.2496H0Z" fill="var(--fill-0, #6E737A)"/>
<path d="M15.6078 34.6551V17.2311H18.4293L18.7263 18.9883H18.8995C19.3285 18.2788 19.8895 17.7591 20.5825 17.4291C21.2755 17.0991 22.0428 16.9341 22.8843 16.9341C23.9733 16.9341 24.9055 17.1733 25.681 17.6518C26.473 18.1303 27.0753 18.8728 27.4878 19.8793C27.9168 20.8858 28.1313 22.1811 28.1313 23.7651C28.1313 25.2996 27.9168 26.5701 27.4878 27.5766C27.0588 28.5831 26.4565 29.3338 25.681 29.8288C24.922 30.3073 24.031 30.5466 23.008 30.5466C22.447 30.5466 21.9273 30.4806 21.4488 30.3486C20.9703 30.2331 20.5413 30.0433 20.1618 29.7793C19.7823 29.5153 19.4605 29.1936 19.1965 28.8141H19.048V34.6551H15.6078ZM21.82 27.7251C22.513 27.7251 23.0575 27.5931 23.4535 27.3291C23.866 27.0486 24.163 26.6361 24.3445 26.0916C24.526 25.5306 24.6168 24.8458 24.6168 24.0373V23.4681C24.6168 22.6431 24.526 21.9583 24.3445 21.4138C24.163 20.8528 23.866 20.4403 23.4535 20.1763C23.0575 19.8958 22.513 19.7556 21.82 19.7556C21.1765 19.7556 20.6485 19.9041 20.236 20.2011C19.8235 20.4981 19.5183 20.9271 19.3203 21.4881C19.1223 22.0491 19.0233 22.7256 19.0233 23.5176V23.9383C19.0233 24.5158 19.081 25.0438 19.1965 25.5223C19.312 25.9843 19.477 26.3803 19.6915 26.7103C19.9225 27.0403 20.2113 27.2961 20.5578 27.4776C20.9043 27.6426 21.325 27.7251 21.82 27.7251Z" fill="var(--fill-0, #6E737A)"/>
<path d="M29.6756 30.2496V12.3553H33.1159V18.6666H33.2891C33.5696 18.3201 33.8996 18.0231 34.2791 17.7756C34.6751 17.5116 35.1124 17.3053 35.5909 17.1568C36.0859 17.0083 36.6221 16.9341 37.1996 16.9341C38.0576 16.9341 38.8084 17.0908 39.4519 17.4043C40.0954 17.7178 40.5904 18.2128 40.9369 18.8893C41.2999 19.5658 41.4814 20.4486 41.4814 21.5376V30.2496H38.0411V22.0821C38.0411 21.6696 37.9916 21.3231 37.8926 21.0426C37.7936 20.7456 37.6451 20.5063 37.4471 20.3248C37.2656 20.1268 37.0346 19.9866 36.7541 19.9041C36.4736 19.8216 36.1601 19.7803 35.8136 19.7803C35.3021 19.7803 34.8401 19.9041 34.4276 20.1516C34.0151 20.3991 33.6934 20.7373 33.4624 21.1663C33.2314 21.5953 33.1159 22.0903 33.1159 22.6513V30.2496H29.6756Z" fill="var(--fill-0, #6E737A)"/>
<path d="M49.4896 30.5466C48.0541 30.5466 46.8496 30.3073 45.8761 29.8288C44.9026 29.3338 44.1683 28.5831 43.6733 27.5766C43.1783 26.5701 42.9308 25.2913 42.9308 23.7403C42.9308 22.1728 43.1783 20.8941 43.6733 19.9041C44.1683 18.8976 44.8943 18.1551 45.8513 17.6766C46.8248 17.1816 48.0128 16.9341 49.4153 16.9341C50.7353 16.9341 51.8491 17.1733 52.7566 17.6518C53.6641 18.1138 54.3488 18.8398 54.8108 19.8298C55.2728 20.8033 55.5038 22.0656 55.5038 23.6166V24.5076H46.4206C46.4536 25.2666 46.5691 25.9101 46.7671 26.4381C46.9816 26.9661 47.3033 27.3621 47.7323 27.6261C48.1778 27.8736 48.7636 27.9973 49.4896 27.9973C49.8856 27.9973 50.2403 27.9478 50.5538 27.8488C50.8838 27.7498 51.1643 27.6013 51.3953 27.4033C51.6263 27.2053 51.8078 26.9578 51.9398 26.6608C52.0718 26.3638 52.1378 26.0256 52.1378 25.6461H55.5038C55.5038 26.4711 55.3553 27.1888 55.0583 27.7993C54.7613 28.4098 54.3488 28.9213 53.8208 29.3338C53.2928 29.7298 52.6576 30.0351 51.9151 30.2496C51.1891 30.4476 50.3806 30.5466 49.4896 30.5466ZM46.4701 22.3296H51.9646C51.9646 21.8346 51.8986 21.4056 51.7666 21.0426C51.6511 20.6796 51.4861 20.3826 51.2716 20.1516C51.0571 19.9206 50.7931 19.7556 50.4796 19.6566C50.1826 19.5411 49.8443 19.4833 49.4648 19.4833C48.8378 19.4833 48.3098 19.5906 47.8808 19.8051C47.4683 20.0031 47.1466 20.3166 46.9156 20.7456C46.7011 21.1581 46.5526 21.6861 46.4701 22.3296Z" fill="var(--fill-0, #6E737A)"/>
<path d="M57.0379 30.2496V17.2311H59.8842L60.1564 19.0131H60.3297C60.6102 18.5841 60.9402 18.2128 61.3197 17.8993C61.7157 17.5858 62.1529 17.3466 62.6314 17.1816C63.1264 17.0166 63.6544 16.9341 64.2154 16.9341C65.0404 16.9341 65.7499 17.0991 66.3439 17.4291C66.9544 17.7591 67.4247 18.2871 67.7547 19.0131H67.9279C68.2084 18.5841 68.5467 18.2128 68.9427 17.8993C69.3387 17.5858 69.7924 17.3466 70.3039 17.1816C70.8154 17.0166 71.3599 16.9341 71.9374 16.9341C72.7624 16.9341 73.4719 17.0826 74.0659 17.3796C74.6764 17.6766 75.1549 18.1633 75.5014 18.8398C75.8479 19.4998 76.0212 20.3578 76.0212 21.4138V30.2496H72.5809V22.0326C72.5809 21.6201 72.5314 21.2736 72.4324 20.9931C72.3499 20.6961 72.2262 20.4651 72.0612 20.3001C71.8962 20.1186 71.6899 19.9866 71.4424 19.9041C71.1949 19.8216 70.9309 19.7803 70.6504 19.7803C70.1884 19.7803 69.7759 19.9041 69.4129 20.1516C69.0499 20.3991 68.7612 20.7373 68.5467 21.1663C68.3487 21.5953 68.2497 22.0903 68.2497 22.6513V30.2496H64.8094V22.0326C64.8094 21.6201 64.7599 21.2736 64.6609 20.9931C64.5784 20.6961 64.4547 20.4651 64.2897 20.3001C64.1247 20.1186 63.9184 19.9866 63.6709 19.9041C63.4399 19.8216 63.1759 19.7803 62.8789 19.7803C62.4334 19.7803 62.0209 19.9041 61.6414 20.1516C61.2784 20.3991 60.9897 20.7373 60.7752 21.1663C60.5772 21.5953 60.4782 22.0903 60.4782 22.6513V30.2496H57.0379Z" fill="var(--fill-0, #6E737A)"/>
<path d="M84.0061 30.5466C82.5706 30.5466 81.3661 30.3073 80.3926 29.8288C79.4191 29.3338 78.6849 28.5831 78.1899 27.5766C77.6949 26.5701 77.4474 25.2913 77.4474 23.7403C77.4474 22.1728 77.6949 20.8941 78.1899 19.9041C78.6849 18.8976 79.4109 18.1551 80.3679 17.6766C81.3414 17.1816 82.5294 16.9341 83.9319 16.9341C85.2519 16.9341 86.3656 17.1733 87.2731 17.6518C88.1806 18.1138 88.8654 18.8398 89.3274 19.8298C89.7894 20.8033 90.0204 22.0656 90.0204 23.6166V24.5076H80.9371C80.9701 25.2666 81.0856 25.9101 81.2836 26.4381C81.4981 26.9661 81.8199 27.3621 82.2489 27.6261C82.6944 27.8736 83.2801 27.9973 84.0061 27.9973C84.4021 27.9973 84.7569 27.9478 85.0704 27.8488C85.4004 27.7498 85.6809 27.6013 85.9119 27.4033C86.1429 27.2053 86.3244 26.9578 86.4564 26.6608C86.5884 26.3638 86.6544 26.0256 86.6544 25.6461H90.0204C90.0204 26.4711 89.8719 27.1888 89.5749 27.7993C89.2779 28.4098 88.8654 28.9213 88.3374 29.3338C87.8094 29.7298 87.1741 30.0351 86.4316 30.2496C85.7056 30.4476 84.8971 30.5466 84.0061 30.5466ZM80.9866 22.3296H86.4811C86.4811 21.8346 86.4151 21.4056 86.2831 21.0426C86.1676 20.6796 86.0026 20.3826 85.7881 20.1516C85.5736 19.9206 85.3096 19.7556 84.9961 19.6566C84.6991 19.5411 84.3609 19.4833 83.9814 19.4833C83.3544 19.4833 82.8264 19.5906 82.3974 19.8051C81.9849 20.0031 81.6631 20.3166 81.4321 20.7456C81.2176 21.1581 81.0691 21.6861 80.9866 22.3296Z" fill="var(--fill-0, #6E737A)"/>
<path d="M91.5545 30.2496V17.2311H94.4008L94.673 19.2606H94.8463C95.0113 18.8316 95.2258 18.4438 95.4898 18.0973C95.7538 17.7343 96.0838 17.4456 96.4798 17.2311C96.8758 17.0166 97.3378 16.9093 97.8658 16.9093C98.1463 16.9093 98.402 16.9423 98.633 17.0083C98.864 17.0578 99.0373 17.1073 99.1528 17.1568V20.2753H98.0885C97.577 20.2753 97.1233 20.3496 96.7273 20.4981C96.3478 20.6301 96.026 20.8446 95.762 21.1416C95.498 21.4386 95.3 21.8016 95.168 22.2306C95.0525 22.6596 94.9948 23.1628 94.9948 23.7403V30.2496H91.5545Z" fill="var(--fill-0, #6E737A)"/>
<path d="M103.165 30.5466C102.736 30.5466 102.274 30.4971 101.779 30.3981C101.301 30.2991 100.847 30.1258 100.418 29.8783C99.9889 29.6143 99.6342 29.2431 99.3537 28.7646C99.0897 28.2696 98.9577 27.6426 98.9577 26.8836C98.9577 25.9761 99.1557 25.2253 99.5517 24.6313C99.9477 24.0373 100.509 23.5753 101.235 23.2453C101.977 22.8988 102.86 22.6596 103.883 22.5276C104.906 22.3956 106.036 22.3296 107.274 22.3296V21.3643C107.274 20.9848 107.208 20.6548 107.076 20.3743C106.96 20.0938 106.746 19.8711 106.432 19.7061C106.135 19.5411 105.714 19.4586 105.17 19.4586C104.625 19.4586 104.18 19.5246 103.833 19.6566C103.503 19.7886 103.264 19.9618 103.116 20.1763C102.984 20.3743 102.918 20.5971 102.918 20.8446V21.1416H99.5764C99.5599 21.0591 99.5517 20.9848 99.5517 20.9188C99.5517 20.8363 99.5517 20.7373 99.5517 20.6218C99.5517 19.8628 99.7827 19.2111 100.245 18.6666C100.707 18.1056 101.358 17.6766 102.2 17.3796C103.041 17.0826 104.023 16.9341 105.145 16.9341C106.35 16.9341 107.356 17.0908 108.165 17.4043C108.99 17.7178 109.617 18.1798 110.046 18.7903C110.491 19.4008 110.714 20.1681 110.714 21.0921V27.0073C110.714 27.3043 110.796 27.5271 110.961 27.6756C111.143 27.8076 111.341 27.8736 111.555 27.8736H112.372V30.1258C112.207 30.2083 111.951 30.2908 111.605 30.3733C111.258 30.4723 110.838 30.5218 110.343 30.5218C109.864 30.5218 109.435 30.4476 109.056 30.2991C108.693 30.1671 108.387 29.9773 108.14 29.7298C107.892 29.4658 107.719 29.1523 107.62 28.7893H107.447C107.166 29.1358 106.82 29.4411 106.407 29.7051C106.011 29.9691 105.541 30.1753 104.997 30.3238C104.469 30.4723 103.858 30.5466 103.165 30.5466ZM104.328 27.9478C104.79 27.9478 105.203 27.8818 105.566 27.7498C105.929 27.6013 106.234 27.4116 106.482 27.1806C106.729 26.9331 106.919 26.6361 107.051 26.2896C107.199 25.9431 107.274 25.5718 107.274 25.1758V24.4581C106.35 24.4581 105.525 24.5241 104.799 24.6561C104.073 24.7716 103.495 24.9778 103.066 25.2748C102.654 25.5718 102.447 25.9843 102.447 26.5123C102.447 26.8093 102.522 27.0651 102.67 27.2796C102.819 27.4941 103.033 27.6591 103.314 27.7746C103.594 27.8901 103.932 27.9478 104.328 27.9478Z" fill="var(--fill-0, #6E737A)"/>
<path d="M113.092 30.2496V12.3553H116.532V30.2496H113.092Z" fill="var(--fill-0, #6E737A)"/>
</g>
</g>
</svg>
