<svg preserveAspectRatio="none" width="100%" height="100%" overflow="visible" style="display: block;" viewBox="0 0 36.6679 44" fill="none" xmlns="http://www.w3.org/2000/svg">
<g id="Logomark">
<path id="Vector" d="M17.9679 4.54037C14.7901 4.54037 12.2235 7.07583 12.2235 10.215C12.2235 13.33 14.7901 15.8654 17.9435 15.8896C17.1612 15.8654 16.5501 15.2376 16.5501 14.4649C16.5501 13.6922 17.1857 13.0402 17.9924 13.0402C21.4146 13.0402 29.0168 13.0402 32.3657 13.0402C34.7368 13.0402 36.6679 11.1326 36.6679 8.79031C36.6679 6.448 34.7368 4.54036 32.3657 4.54036L17.9679 4.54037Z" fill="var(--fill-0, #6E737A)"/>
<path id="Vector_2" d="M10.9837 15.8895C7.80592 15.8895 5.23926 18.425 5.23926 21.5641C5.23926 24.6791 7.80592 27.2145 10.9592 27.2387C10.177 27.2145 9.56592 26.5867 9.56592 25.814C9.56592 25.0413 10.2015 24.3893 11.0082 24.3893C14.4304 24.3893 22.0326 24.3893 25.3815 24.3893C27.7526 24.3893 29.6837 22.4817 29.6837 20.1394C29.6837 17.7971 27.7526 15.8895 25.3815 15.8895L10.9837 15.8895Z" fill="var(--fill-0, #6E737A)"/>
<path id="Vector_3" d="M6.15541 27.2386C2.75065 27.2386 0.000650942 29.9691 0.000651042 33.3497C0.00065114 36.7044 2.75065 39.4348 6.1292 39.4608C5.29112 39.4348 4.63637 38.7587 4.63637 37.9265C4.63637 37.0944 5.31733 36.3923 6.18163 36.3923C9.84825 36.3923 17.9935 36.3923 21.5816 36.3923C24.1221 36.3923 26.1911 34.3379 26.1911 31.8155C26.1911 29.293 24.1221 27.2386 21.5816 27.2386L6.15541 27.2386Z" fill="var(--fill-0, #6E737A)"/>
</g>
</svg>
